<svg width="33" height="32" viewBox="0 0 33 32" fill="none" xmlns="http://www.w3.org/2000/svg">
<path d="M22.75 4C20.1688 4 17.9088 5.11 16.5 6.98625C15.0912 5.11 12.8313 4 10.25 4C8.19528 4.00232 6.22539 4.81958 4.77248 6.27248C3.31958 7.72539 2.50232 9.69528 2.5 11.75C2.5 20.5 15.4738 27.5825 16.0262 27.875C16.1719 27.9533 16.3346 27.9943 16.5 27.9943C16.6654 27.9943 16.8281 27.9533 16.9737 27.875C17.5262 27.5825 30.5 20.5 30.5 11.75C30.4977 9.69528 29.6804 7.72539 28.2275 6.27248C26.7746 4.81958 24.8047 4.00232 22.75 4ZM16.5 25.85C14.2175 24.52 4.5 18.4613 4.5 11.75C4.50198 10.2256 5.10842 8.76423 6.18633 7.68633C7.26423 6.60842 8.72561 6.00198 10.25 6C12.6812 6 14.7225 7.295 15.575 9.375C15.6503 9.55841 15.7785 9.71528 15.9432 9.82569C16.1079 9.93609 16.3017 9.99503 16.5 9.99503C16.6983 9.99503 16.8921 9.93609 17.0568 9.82569C17.2215 9.71528 17.3497 9.55841 17.425 9.375C18.2775 7.29125 20.3188 6 22.75 6C24.2744 6.00198 25.7358 6.60842 26.8137 7.68633C27.8916 8.76423 28.498 10.2256 28.5 11.75C28.5 18.4513 18.78 24.5188 16.5 25.85Z" fill="#40513B"/>
</svg>
