<svg width="24" height="25" viewBox="0 0 24 25" fill="none" xmlns="http://www.w3.org/2000/svg">
<path d="M12 2.75C10.0716 2.75 8.18657 3.32183 6.58319 4.39317C4.97982 5.46452 3.73013 6.98726 2.99218 8.76884C2.25422 10.5504 2.06114 12.5108 2.43735 14.4021C2.81355 16.2934 3.74215 18.0307 5.10571 19.3943C6.46927 20.7579 8.20656 21.6865 10.0979 22.0627C11.9892 22.4389 13.9496 22.2458 15.7312 21.5078C17.5127 20.7699 19.0355 19.5202 20.1068 17.9168C21.1782 16.3134 21.75 14.4284 21.75 12.5C21.7473 9.91498 20.7192 7.43661 18.8913 5.60872C17.0634 3.78084 14.585 2.75273 12 2.75ZM12 20.75C10.3683 20.75 8.77326 20.2661 7.41655 19.3596C6.05984 18.4531 5.00242 17.1646 4.378 15.6571C3.75358 14.1496 3.5902 12.4908 3.90853 10.8905C4.22685 9.29016 5.01259 7.82015 6.16637 6.66637C7.32016 5.51259 8.79017 4.72685 10.3905 4.40852C11.9909 4.09019 13.6497 4.25357 15.1571 4.87799C16.6646 5.50242 17.9531 6.55984 18.8596 7.91655C19.7661 9.27325 20.25 10.8683 20.25 12.5C20.2475 14.6873 19.3775 16.7843 17.8309 18.3309C16.2843 19.8775 14.1873 20.7475 12 20.75ZM7.5 10.625C7.5 10.4025 7.56598 10.185 7.6896 9.99998C7.81322 9.81498 7.98892 9.67078 8.19449 9.58564C8.40005 9.50049 8.62625 9.47821 8.84448 9.52162C9.06271 9.56502 9.26317 9.67217 9.4205 9.8295C9.57783 9.98684 9.68498 10.1873 9.72839 10.4055C9.7718 10.6238 9.74952 10.85 9.66437 11.0555C9.57922 11.2611 9.43503 11.4368 9.25002 11.5604C9.06502 11.684 8.84751 11.75 8.625 11.75C8.32664 11.75 8.04049 11.6315 7.82951 11.4205C7.61853 11.2095 7.5 10.9234 7.5 10.625ZM17.25 10.625C17.25 10.8239 17.171 11.0147 17.0303 11.1553C16.8897 11.296 16.6989 11.375 16.5 11.375H14.25C14.0511 11.375 13.8603 11.296 13.7197 11.1553C13.579 11.0147 13.5 10.8239 13.5 10.625C13.5 10.4261 13.579 10.2353 13.7197 10.0947C13.8603 9.95402 14.0511 9.875 14.25 9.875H16.5C16.6989 9.875 16.8897 9.95402 17.0303 10.0947C17.171 10.2353 17.25 10.4261 17.25 10.625ZM16.3988 15.125C15.4341 16.7928 13.8309 17.75 12 17.75C10.1691 17.75 8.56594 16.7937 7.60032 15.125C7.55107 15.0397 7.51911 14.9455 7.50626 14.8478C7.49342 14.7502 7.49993 14.6509 7.52544 14.5558C7.55095 14.4606 7.59495 14.3714 7.65492 14.2933C7.7149 14.2151 7.78969 14.1496 7.875 14.1003C7.96032 14.0511 8.0545 14.0191 8.15217 14.0063C8.24984 13.9934 8.34909 13.9999 8.44424 14.0254C8.53939 14.0509 8.62858 14.0949 8.70673 14.1549C8.78488 14.2149 8.85045 14.2897 8.89969 14.375C9.59907 15.5853 10.6997 16.25 12 16.25C13.3003 16.25 14.4009 15.5844 15.1013 14.375C15.1481 14.2854 15.2127 14.2062 15.291 14.1421C15.3693 14.0781 15.4597 14.0305 15.5569 14.0023C15.654 13.9742 15.7558 13.9659 15.8563 13.9781C15.9567 13.9903 16.0536 14.0227 16.1412 14.0733C16.2287 14.1239 16.3052 14.1917 16.3658 14.2727C16.4265 14.3536 16.4702 14.446 16.4943 14.5442C16.5183 14.6425 16.5223 14.7446 16.5059 14.8444C16.4895 14.9442 16.453 15.0396 16.3988 15.125Z" fill="#40513B"/>
</svg>
