<svg width="21" height="19" viewBox="0 0 21 19" fill="none" xmlns="http://www.w3.org/2000/svg">
<path d="M20.0298 3.78062L17.2267 6.58375C16.6604 13.1481 11.1245 18.25 4.49919 18.25C3.13794 18.25 2.01575 18.0344 1.16357 17.6087C0.476379 17.2647 0.19513 16.8962 0.124817 16.7912C0.0621213 16.6972 0.0214839 16.5902 0.0059416 16.4783C-0.00960066 16.3664 0.000354163 16.2524 0.0350618 16.1448C0.0697695 16.0373 0.128332 15.939 0.206376 15.8572C0.284419 15.7755 0.379924 15.7124 0.485754 15.6728C0.510129 15.6634 2.75826 14.8 4.18607 13.1566C3.39424 12.5055 2.70302 11.741 2.13482 10.8878C0.972317 9.16187 -0.328933 6.16375 0.072317 1.68343C0.0850353 1.54107 0.138169 1.40531 0.22546 1.29213C0.312751 1.17895 0.430565 1.09307 0.565028 1.04461C0.69949 0.996139 0.845002 0.987105 0.984427 1.01857C1.12385 1.05003 1.25138 1.12067 1.352 1.22218C1.38482 1.255 4.472 4.32531 8.24638 5.32093V4.75C8.24494 4.1513 8.36331 3.55838 8.59452 3.00613C8.82572 2.45388 9.16509 1.95347 9.59263 1.53437C10.0078 1.11974 10.5019 0.792474 11.0457 0.571882C11.5894 0.351291 12.1718 0.241843 12.7586 0.249997C13.5457 0.25776 14.3173 0.469047 14.9986 0.863314C15.6799 1.25758 16.2475 1.82142 16.6464 2.5H19.4992C19.6476 2.49988 19.7927 2.5438 19.9162 2.62621C20.0396 2.70861 20.1358 2.82579 20.1927 2.9629C20.2495 3.10002 20.2643 3.25091 20.2353 3.39648C20.2064 3.54204 20.1348 3.67573 20.0298 3.78062Z" fill="#40513B"/>
</svg>
